<svg xmlns="http://www.w3.org/2000/svg" xmlns:xlink="http://www.w3.org/1999/xlink" version="1.1" x="0px" y="0px" viewBox="0 0 100 100" style="enable-background:new 0 0 100 100;" xml:space="preserve"><g><path d="M85.1044922,45.25L72.7587891,29.7944336c-0.0292969-0.0366211-0.0605469-0.0712891-0.0947266-0.1030273   C72.1064453,29.1650391,71.3720703,28.875,70.5976563,28.875H41.1826172c-1.6621094,0-3.0136719,1.3515625-3.0136719,3.0126953   V38.9375h-8.0693359c-4.4345703,0-8.0429688,3.6083984-8.0429688,8.0439453v2.237793l-4.9511719,1.2387695   C15.2773438,50.9116211,14,52.5439453,14,54.4277344v5.9018555c0,2.6235352,2.1347656,4.7578125,4.7578125,4.7578125h4.3852539   C23.6315918,68.4946289,26.5632324,71.125,30.1054688,71.125s6.473877-2.6303711,6.9624023-6.0375977H61.409668   C61.8981934,68.4946289,64.829834,71.125,68.3720703,71.125s6.473877-2.6303711,6.9624023-6.0375977h4.1147461   c0.8154297,0,1.5742188-0.3183594,2.1171875-0.8774414c0.6474609-0.6298828,0.96875-1.5073242,0.8828125-2.4082031   c-0.090332-1.0228271-0.7312012-1.8881836-1.6206055-2.3588257l4.8383789-10.6665649   C86.2666016,47.6049805,86.0351563,46.1708984,85.1044922,45.25z M30.1054688,69.125   c-2.7802734,0-5.0419922-2.2597656-5.0419922-5.0375977s2.2617188-5.0375977,5.0419922-5.0375977   s5.0419922,2.2597656,5.0419922,5.0375977S32.8857422,69.125,30.1054688,69.125z M61.9853516,61.140625   c-0.1237793,0.2660522-0.229248,0.5395508-0.3183594,0.8191528c-0.0146484,0.045166-0.0314941,0.0891113-0.0449219,0.1345215   c-0.0876465,0.2955933-0.152832,0.5975342-0.2009277,0.9039307c-0.0046387,0.0302124-0.0153809,0.0588989-0.0197754,0.0891724   H37.0761719c-0.0107422-0.0754395-0.0291748-0.1481934-0.0423584-0.2228394   c-0.0177002-0.1003418-0.0350342-0.2005615-0.0570068-0.2993774c-0.0269775-0.1219482-0.0598145-0.2415161-0.0930176-0.3610229   c-0.0262451-0.0940552-0.0506592-0.1886597-0.0805664-0.2811279c-0.0401611-0.1235962-0.0871582-0.2438354-0.1337891-0.3643188   c-0.0324707-0.0841675-0.0620117-0.1696777-0.0976563-0.2522583c-0.0588379-0.1362305-0.1257324-0.2679443-0.1928711-0.3995972   c-0.0317383-0.0621948-0.0593262-0.126709-0.0927734-0.1878662c-0.1035156-0.1889038-0.215332-0.3726807-0.335083-0.5505981   c-0.03479-0.0517578-0.074585-0.0996704-0.1108398-0.1504517c-0.0894775-0.1256714-0.1796875-0.2506714-0.2769775-0.3699951   c-0.0537109-0.0657349-0.1120605-0.1270142-0.1679688-0.1907349c-0.0869141-0.098877-0.1733398-0.197876-0.2655029-0.2918091   c-0.0635986-0.0648804-0.1309814-0.1256714-0.1970215-0.1880493c-0.0914307-0.0863647-0.1832275-0.1720581-0.2791748-0.253479   c-0.071167-0.0604858-0.1450195-0.1174316-0.2186279-0.1750488c-0.0970459-0.0759888-0.1951904-0.1505737-0.2962646-0.2214966   c-0.0776367-0.0545044-0.1568604-0.1063843-0.2368164-0.1578369c-0.1035156-0.0665894-0.2084961-0.1306152-0.3156738-0.1918335   c-0.0825195-0.0471191-0.1655273-0.0927124-0.25-0.1365356c-0.1103516-0.057251-0.2227783-0.1106567-0.3364258-0.1621704   c-0.0864258-0.0391846-0.1727295-0.078064-0.2609863-0.1137695c-0.1179199-0.0476685-0.237915-0.0900269-0.3586426-0.1314087   c-0.0882568-0.0302124-0.1757813-0.0615234-0.2653809-0.0882568c-0.128418-0.038269-0.2595215-0.0696411-0.3908691-0.100708   c-0.0861816-0.0203247-0.1708984-0.043335-0.2581787-0.0604858c-0.1468506-0.0288086-0.2965088-0.0488281-0.4464111-0.0683594   c-0.0750732-0.0098267-0.1486816-0.0238647-0.2243652-0.03125c-0.2270508-0.0221558-0.4567871-0.0349121-0.6894531-0.0349121   s-0.4624023,0.0127563-0.6894531,0.0349121c-0.0756836,0.0073853-0.149292,0.0214233-0.2243652,0.03125   c-0.1499023,0.0195313-0.2995605,0.0395508-0.4464111,0.0683594c-0.0872803,0.0171509-0.1719971,0.0401611-0.2581787,0.0604858   c-0.1313477,0.0310669-0.2624512,0.062439-0.3908691,0.100708c-0.0895996,0.0267334-0.177002,0.0580444-0.2651367,0.0881958   c-0.1209717,0.0414429-0.2412109,0.0838623-0.3591309,0.1315918c-0.0880127,0.0356445-0.1740723,0.0743408-0.2602539,0.1134033   c-0.1138916,0.0515747-0.2263184,0.1051025-0.3369141,0.1624756c-0.0844727,0.0438232-0.1674805,0.0893555-0.25,0.1364746   c-0.1071777,0.0612183-0.2121582,0.1252441-0.3156738,0.1918335c-0.0799561,0.0514526-0.1591797,0.1033325-0.2368164,0.1578369   c-0.1010742,0.0709229-0.1992188,0.1455078-0.2962646,0.2214966c-0.0736084,0.0576172-0.1474609,0.114563-0.2186279,0.1750488   c-0.0959473,0.0814209-0.1877441,0.1671143-0.2791748,0.253479c-0.06604,0.0623779-0.1334229,0.1231689-0.1970215,0.1880493   c-0.0921631,0.0939331-0.1785889,0.1929321-0.2655029,0.2918091c-0.0559082,0.0637207-0.1142578,0.125-0.1679688,0.1907349   c-0.09729,0.1193237-0.1875,0.2443237-0.2769775,0.3699951c-0.0362549,0.0507813-0.0760498,0.0986938-0.1108398,0.1504517   c-0.119751,0.1779175-0.2315674,0.3616943-0.335083,0.5505981c-0.0332031,0.0606689-0.0605469,0.1246948-0.092041,0.1864014   c-0.0673828,0.1323242-0.1346436,0.2647095-0.1938477,0.4016113c-0.0354004,0.0817261-0.0644531,0.1663818-0.0966797,0.2496338   c-0.046875,0.1212158-0.0942383,0.2421265-0.1345215,0.3664551c-0.0300293,0.0924072-0.0543213,0.1870117-0.0805664,0.2810669   c-0.0332031,0.1195068-0.06604,0.2390747-0.0930176,0.3610229c-0.0219727,0.0988159-0.0393066,0.1990356-0.0570068,0.2993774   c-0.0131836,0.074646-0.0316162,0.1473999-0.0423584,0.2228394h-4.3769531C17.2373047,63.0874023,16,61.8500977,16,60.3295898   v-5.9018555c0-0.9624023,0.6523438-1.7963867,1.5898438-2.0288086l5.7099609-1.4287109   C23.7441406,50.8588867,24.0566406,50.4589844,24.0566406,50v-3.0185547c0-3.3325195,2.7109375-6.0439453,6.0429688-6.0439453   h8.0693359v19.125c0,0.5522461,0.4472656,1,1,1H62.015625C62.003418,61.0877686,61.9970703,61.1152344,61.9853516,61.140625z    M68.3720703,69.125c-2.7802734,0-5.0419922-2.2597656-5.0419922-5.0375977c0-1.2436523,0.4589844-2.4345703,1.2988281-3.3613281   c0.9443359-1.0654297,2.3085938-1.6762695,3.7431641-1.6762695s2.7988281,0.6108398,3.7431641,1.6762695   c0.0019531,0.0024414,0.0048828,0.0053711,0.0068359,0.0083008c0.8330078,0.918457,1.2919922,2.109375,1.2919922,3.3530273   C73.4140625,66.8652344,71.1523438,69.125,68.3720703,69.125z M80.1523438,62.7963867   c-0.1826172,0.1875-0.4326172,0.2910156-0.703125,0.2910156h-4.1064453   c-0.0043945-0.0302124-0.0151367-0.0587769-0.0197754-0.0889282c-0.0480957-0.3057251-0.1130371-0.6071777-0.2004395-0.9020996   c-0.0141602-0.0473633-0.0317383-0.0930176-0.0466309-0.1400146c-0.088623-0.2774658-0.1936035-0.5490112-0.3161621-0.8132324   c-0.012207-0.0261841-0.0187988-0.0545654-0.03125-0.0806274h4.6103516c0.5732422,0,1.0742188,0.4116211,1.1181641,0.9169922   c0,0.0039063,0,0.0073242,0.0009766,0.0112305C80.4873047,62.2895508,80.3847656,62.5693359,80.1523438,62.7963867z    M83.8808594,47.875c-0.0087891,0.0170898-0.0166016,0.0341797-0.0253906,0.0517578L78.8046875,59.0625h-5.5126953   c-0.034668-0.0343018-0.0732422-0.0637207-0.1088867-0.097229c-0.0793457-0.0751953-0.1611328-0.1469116-0.2438965-0.2180176   c-0.0986328-0.0848999-0.1987305-0.1672363-0.3017578-0.2462158c-0.0847168-0.0649414-0.1704102-0.1276245-0.2578125-0.1884155   c-0.1081543-0.0753174-0.2182617-0.1466675-0.3303223-0.2156372c-0.0888672-0.0548096-0.1779785-0.1086426-0.2695313-0.1593628   c-0.1164551-0.0647583-0.2353516-0.1242065-0.3552246-0.1821289c-0.0925293-0.0446777-0.1845703-0.0898438-0.2790527-0.1304321   c-0.1252441-0.053772-0.2529297-0.100769-0.3808594-0.1472168c-0.0939941-0.0339966-0.1867676-0.0699463-0.2822266-0.0999756   c-0.135498-0.0427246-0.2736816-0.0769043-0.4121094-0.1114502c-0.0915527-0.0228271-0.1821289-0.0491943-0.2746582-0.0683594   c-0.1550293-0.0320435-0.3122559-0.0537109-0.4699707-0.0753174c-0.0783691-0.0108032-0.1557617-0.0266113-0.2348633-0.034729   c-0.237793-0.0244141-0.4772949-0.038208-0.71875-0.038208c-0.2412109,0-0.480957,0.0137329-0.7185059,0.038147   c-0.0817871,0.0083618-0.1618652,0.0247192-0.2429199,0.0359497c-0.154541,0.0213623-0.309082,0.0424805-0.4614258,0.0739746   c-0.0961914,0.0198975-0.1899414,0.0471802-0.2851563,0.0709839c-0.1340332,0.0335693-0.2680664,0.0665894-0.3994141,0.1079712   c-0.1013184,0.0317383-0.199707,0.0697632-0.2993164,0.1060181c-0.1210938,0.0442505-0.2419434,0.088501-0.3603516,0.1392822   c-0.1022949,0.0437622-0.2016602,0.0924683-0.3017578,0.1410522c-0.1108398,0.053833-0.2207031,0.1085815-0.3286133,0.1682129   c-0.1005859,0.0557251-0.1989746,0.1149902-0.296875,0.1755981c-0.1010742,0.0626221-0.2006836,0.1270752-0.298584,0.1948853   c-0.097168,0.0673218-0.1923828,0.1369019-0.2861328,0.2092285c-0.0932617,0.0718994-0.184082,0.1465454-0.2736816,0.2232666   c-0.0898438,0.0769043-0.1784668,0.1546631-0.2644043,0.2363281c-0.0334473,0.0316772-0.0700684,0.0594482-0.1027832,0.0917969   H40.1689453v-19.125v-8.0498047c0-0.5585938,0.4550781-1.0126953,1.0136719-1.0126953h29.4150391   c0.2421875,0,0.4707031,0.0820313,0.6503906,0.2319336l12.3339844,15.4418945   c0.0302734,0.0375977,0.0625,0.0727539,0.0976563,0.1054688C84.0117188,46.9663086,84.0947266,47.4682617,83.8808594,47.875z"/><path d="M35.140625,42.9624023h-5.0566406c-2.2060547,0-4,1.7944336-4,4V50c0,0.5522461,0.4472656,1,1,1h5.0566406   c2.2060547,0,4-1.7944336,4-4v-3.0375977C36.140625,43.4101563,35.6933594,42.9624023,35.140625,42.9624023z M34.140625,47   c0,1.1030273-0.8974609,2-2,2h-4.0566406v-2.0375977c0-1.1030273,0.8974609-2,2-2h4.0566406V47z"/><path d="M30.1054688,61.0751953c-1.6621094,0-3.0146484,1.3510742-3.0146484,3.012207s1.3525391,3.0126953,3.0146484,3.0126953   s3.0136719-1.3515625,3.0136719-3.0126953S31.7675781,61.0751953,30.1054688,61.0751953z M30.1054688,65.1000977   c-0.5595703,0-1.0146484-0.4541016-1.0146484-1.0126953c0-0.5581055,0.4550781-1.012207,1.0146484-1.012207   c0.5585938,0,1.0136719,0.4541016,1.0136719,1.012207C31.1191406,64.6459961,30.6640625,65.1000977,30.1054688,65.1000977z"/><path d="M68.3720703,61.0751953c-1.6621094,0-3.0136719,1.3510742-3.0136719,3.012207s1.3515625,3.0126953,3.0136719,3.0126953   s3.0136719-1.3515625,3.0136719-3.0126953S70.0341797,61.0751953,68.3720703,61.0751953z M68.3720703,65.1000977   c-0.5585938,0-1.0136719-0.4541016-1.0136719-1.0126953c0-0.5581055,0.4550781-1.012207,1.0136719-1.012207   s1.0136719,0.4541016,1.0136719,1.012207C69.3857422,64.6459961,68.9306641,65.1000977,68.3720703,65.1000977z"/><path d="M59.3447266,48.6533203c-0.390625-0.3896484-1.0244141-0.390625-1.4150391,0.0009766   c-0.3896484,0.390625-0.3896484,1.0239258,0.0009766,1.4140625l0.1218262,0.121582h-3.9812012   c-0.6914063,0-1.2949219-0.3383789-1.6132813-0.9052734c-0.2832031-0.5043945-0.2724609-1.078125,0.0292969-1.5737305   c0.2880859-0.4716797,0.1386719-1.0869141-0.3330078-1.3745117c-0.4716797-0.2866211-1.0878906-0.1391602-1.3740234,0.3334961   c-0.6796875,1.1147461-0.7041016,2.4584961-0.0664063,3.5942383c0.6669922,1.1879883,1.9541016,1.9257813,3.3574219,1.9257813   h3.9768066l-0.1213379,0.1210938c-0.3916016,0.3901367-0.3916016,1.0234375-0.0019531,1.4140625   c0.1953125,0.1958008,0.4521484,0.293457,0.7080078,0.293457s0.5117188-0.0976563,0.7060547-0.2924805l1.8339844-1.8310547   c0.1884766-0.1875,0.2939453-0.4418945,0.2939453-0.7075195s-0.1054688-0.5200195-0.2929688-0.7075195L59.3447266,48.6533203z"/><path d="M52.7851563,43.7617188c0.0556641,0.2658691,0.2177734,0.475647,0.427002,0.6159668   c0.0021973,0.0015259,0.0031738,0.0040894,0.0056152,0.0056152c0.0083008,0.0054321,0.0175781,0.006958,0.0258789,0.012085   c0.1550293,0.0961304,0.329834,0.1612549,0.519043,0.1612549c0.0673828,0,0.1347656-0.0068359,0.203125-0.0205078   l2.5351563-0.5244141c0.5410156-0.1123047,0.8886719-0.6411133,0.7773438-1.1821289s-0.6425781-0.8867188-1.1816406-0.7768555   l-0.1740723,0.0360718l2.1799316-3.3168335c0.3779297-0.5751953,0.9765625-0.8950195,1.6416016-0.8491211   c0.5820313,0.0390625,1.0595703,0.3637695,1.3115234,0.8901367c0.2382813,0.4980469,0.8330078,0.7084961,1.3339844,0.4702148   c0.4980469-0.2382813,0.7089844-0.8354492,0.4707031-1.3334961c-0.5644531-1.1782227-1.6787109-1.9345703-2.9814453-2.0224609   c-1.3525391-0.0917969-2.6787109,0.5766602-3.4482422,1.7460938l-2.1826172,3.3210449l-0.0371094-0.1760254   c-0.1123047-0.5415039-0.640625-0.8886719-1.1835938-0.7734375c-0.5410156,0.1132813-0.8867188,0.6430664-0.7734375,1.1835938   L52.7851563,43.7617188z"/><path d="M65.6723633,43.0170288l0.1743164,0.0405884c0.5380859,0.1235352,1.0751953-0.2099609,1.2001953-0.7475586   c0.125-0.5380859-0.2089844-1.0756836-0.7470703-1.2006836l-2.5283203-0.5878906   c-0.5322266-0.1220703-1.0742188,0.2084961-1.2001953,0.7446289l-0.5917969,2.5131836   c-0.1259766,0.5371094,0.2070313,1.0756836,0.7441406,1.2021484C62.8007813,45,62.8779297,45.0083008,62.9541016,45.0083008   c0.453125,0,0.8642578-0.3100586,0.9726563-0.7705078l0.0412598-0.175293l2.1022949,3.3774414   c0.3623047,0.581543,0.3935547,1.2670898,0.0820313,1.8330078c-0.2802734,0.5107422-0.7773438,0.8066406-1.3652344,0.8120117   c-0.5517578,0.0053711-0.9951172,0.4570313-0.9902344,1.0092773c0.0048828,0.5493164,0.4521484,0.9907227,1,0.9907227   c0.0029297,0,0.0058594,0,0.0097656,0c1.3115234-0.012207,2.4697266-0.7036133,3.0996094-1.8496094   c0.6533203-1.1904297,0.6005859-2.6669922-0.1386719-3.8525391L65.6723633,43.0170288z"/></g></svg>